<svg width="18" height="18" viewBox="0 0 18 18" fill="none" xmlns="http://www.w3.org/2000/svg">
<path d="M9 0C4.0275 0 0 4.0275 0 9C0 13.9725 4.0275 18 9 18C13.9725 18 18 13.9725 18 9C18 4.0275 13.9725 0 9 0ZM9 2.25C9.7425 2.25 10.44 2.4525 11.115 2.6775C10.6425 3.1275 10.1025 3.5325 10.1925 3.9375C10.2825 4.3425 11.745 4.23 11.745 5.0625C11.745 5.67 10.8 5.85 11.4525 6.5475C12.24 7.335 10.0125 8.7525 9.9675 9.7875C9.9 11.655 11.8575 11.97 13.41 11.97C14.355 11.97 14.6025 12.42 14.535 12.96C13.32 14.6925 11.25 15.7725 8.9775 15.7725C8.1225 15.7725 7.335 15.57 6.5925 15.2775C7.0875 14.2875 5.9625 12.33 4.905 11.7C4.3875 11.1825 3.285 11.385 2.655 11.1375C2.4525 10.53 2.25 9.9225 2.2275 9.2475C2.295 9.135 2.4075 9.045 2.5875 9.045C3.015 9.045 3.6 9.9 3.915 9.81C4.32 9.72 2.25 6.8625 3.2175 6.3C3.6675 6.03 4.5675 7.1775 4.275 5.94C4.005 4.7925 5.085 5.31 5.76 5.0175C6.345 4.77 6.7725 4.095 6.0525 3.69C5.9175 3.6225 5.76 3.465 5.5575 3.2625C6.57 2.655 7.74 2.2725 9 2.2725V2.25ZM14.1975 4.7025C14.6025 5.1975 14.9175 5.7375 15.1875 6.3225V6.39C15.0975 6.5475 14.94 6.6375 14.6925 6.885C14.0625 7.515 13.9725 6.4125 13.7025 6.1875C13.41 5.9175 12.3525 6.2325 12.2175 5.895C12.06 5.49 13.3425 4.95 14.1975 4.7025Z" fill="#AEAEAE"/>
</svg>
