<svg width="12" height="12" viewBox="0 0 12 12" fill="none" xmlns="http://www.w3.org/2000/svg">
<path d="M6 0C2.685 0 0 2.685 0 6C0 9.315 2.685 12 6 12C9.315 12 12 9.315 12 6C12 2.685 9.315 0 6 0ZM6 1.5C6.495 1.5 6.96 1.635 7.41 1.785C7.095 2.085 6.735 2.355 6.795 2.625C6.855 2.895 7.83 2.82 7.83 3.375C7.83 3.78 7.2 3.9 7.635 4.365C8.16 4.89 6.675 5.835 6.645 6.525C6.6 7.77 7.905 7.98 8.94 7.98C9.57 7.98 9.735 8.28 9.69 8.64C8.88 9.795 7.5 10.515 5.985 10.515C5.415 10.515 4.89 10.38 4.395 10.185C4.725 9.525 3.975 8.22 3.27 7.8C2.925 7.455 2.19 7.59 1.77 7.425C1.635 7.02 1.5 6.615 1.485 6.165C1.53 6.09 1.605 6.03 1.725 6.03C2.01 6.03 2.4 6.6 2.61 6.54C2.88 6.48 1.5 4.575 2.145 4.2C2.445 4.02 3.045 4.785 2.85 3.96C2.67 3.195 3.39 3.54 3.84 3.345C4.23 3.18 4.515 2.73 4.035 2.46C3.945 2.415 3.84 2.31 3.705 2.175C4.38 1.77 5.16 1.515 6 1.515V1.5ZM9.465 3.135C9.735 3.465 9.945 3.825 10.125 4.215V4.26C10.065 4.365 9.96 4.425 9.795 4.59C9.375 5.01 9.315 4.275 9.135 4.125C8.94 3.945 8.235 4.155 8.145 3.93C8.04 3.66 8.895 3.3 9.465 3.135Z" fill="black"/>
</svg>
