<svg width="16" height="16" viewBox="0 0 16 16" fill="none" xmlns="http://www.w3.org/2000/svg">
<path d="M8 0C3.58 0 0 3.58 0 8C0 12.42 3.58 16 8 16C12.42 16 16 12.42 16 8C16 3.58 12.42 0 8 0ZM8 2C8.66 2 9.28 2.18 9.88 2.38C9.46 2.78 8.98 3.14 9.06 3.5C9.14 3.86 10.44 3.76 10.44 4.5C10.44 5.04 9.6 5.2 10.18 5.82C10.88 6.52 8.9 7.78 8.86 8.7C8.8 10.36 10.54 10.64 11.92 10.64C12.76 10.64 12.98 11.04 12.92 11.52C11.84 13.06 10 14.02 7.98 14.02C7.22 14.02 6.52 13.84 5.86 13.58C6.3 12.7 5.3 10.96 4.36 10.4C3.9 9.94 2.92 10.12 2.36 9.9C2.18 9.36 2 8.82 1.98 8.22C2.04 8.12 2.14 8.04 2.3 8.04C2.68 8.04 3.2 8.8 3.48 8.72C3.84 8.64 2 6.1 2.86 5.6C3.26 5.36 4.06 6.38 3.8 5.28C3.56 4.26 4.52 4.72 5.12 4.46C5.64 4.24 6.02 3.64 5.38 3.28C5.26 3.22 5.12 3.08 4.94 2.9C5.84 2.36 6.88 2.02 8 2.02V2ZM12.62 4.18C12.98 4.62 13.26 5.1 13.5 5.62V5.68C13.42 5.82 13.28 5.9 13.06 6.12C12.5 6.68 12.42 5.7 12.18 5.5C11.92 5.26 10.98 5.54 10.86 5.24C10.72 4.88 11.86 4.4 12.62 4.18Z" fill="#AEAEAE"/>
</svg>
