<svg xmlns="http://www.w3.org/2000/svg" viewBox="0 0 86 18.29"><defs><style>.cls-1{fill:#ffde00;}</style></defs><title>лого цвет</title><g id="Слой_2" data-name="Слой 2"><g id="Слой_4" data-name="Слой 4"><path d="M36.18.19H32.86V9.4a6.4,6.4,0,0,1-.36,2.16,5.62,5.62,0,0,1-1,1.79,4.52,4.52,0,0,1-1.59,1.2,4.75,4.75,0,0,1-2.09.45,5.13,5.13,0,0,1-2.14-.45A5.51,5.51,0,0,1,24,13.37a5.35,5.35,0,0,1-1.12-1.75,5.57,5.57,0,0,1-.41-2.13V.22h-3.3l0,9.25a8.74,8.74,0,0,0,.67,3.43,8.64,8.64,0,0,0,4.6,4.7,8.48,8.48,0,0,0,3.41.69,8,8,0,0,0,3.38-.7,8.11,8.11,0,0,0,2.64-1.9,8.59,8.59,0,0,0,1.73-2.83,9.69,9.69,0,0,0,.61-3.46Z"/><path d="M14.44,6.11l2.28-2.54L15.38,2.38A7.39,7.39,0,0,0,12.62.6,9.88,9.88,0,0,0,9.18,0,9.05,9.05,0,0,0,5.62.71a9.27,9.27,0,0,0-2.93,2,9.14,9.14,0,0,0-2,2.9A8.9,8.9,0,0,0,0,9.13l0,0,0,.07a8.77,8.77,0,0,0,.72,3.55,9.16,9.16,0,0,0,2,2.88,9.36,9.36,0,0,0,2.93,1.92,9,9,0,0,0,3.56.7,9.52,9.52,0,0,0,3.43-.63,7.72,7.72,0,0,0,2.79-1.82l1.29-1.43-2.54-2.29-1.3,1.42A6,6,0,0,1,11,14.66,6.09,6.09,0,0,1,8.9,15a5.28,5.28,0,0,1-2.21-.52,5.78,5.78,0,0,1-1.77-1.32A6.06,6.06,0,0,1,3.73,11.3,5.36,5.36,0,0,1,3.3,9.18h0l0,0,0,0A5.28,5.28,0,0,1,3.74,7a6.09,6.09,0,0,1,1.2-1.84A5.69,5.69,0,0,1,6.71,3.83,5.1,5.1,0,0,1,8.9,3.32,5.9,5.9,0,0,1,11,3.6a5.78,5.78,0,0,1,1.88,1.1Z"/><path d="M43.12,10a7.36,7.36,0,0,1,.58-2.69,6.35,6.35,0,0,1,1.34-2A6.16,6.16,0,0,1,47,4a5.75,5.75,0,0,1,2.37-.49H51V.23H49.18A9.07,9.07,0,0,0,45.72,1a12.94,12.94,0,0,0-2.92,2"/><path d="M63.7,9.32a8.12,8.12,0,0,0-1.88-1.08c-.72-.3-1.46-.58-2.24-.82L58.22,7a5.7,5.7,0,0,1-1.1-.45A2.42,2.42,0,0,1,56.39,6a1.27,1.27,0,0,1-.26-.83,1.54,1.54,0,0,1,.24-.88A1.74,1.74,0,0,1,57,3.63a3,3,0,0,1,1-.34,6.62,6.62,0,0,1,1.23-.11,4.57,4.57,0,0,1,1.88.35,24.73,24.73,0,0,1,2.11,1.59l2-2.28-1.7-1.52A5.52,5.52,0,0,0,62.22.57,7.37,7.37,0,0,0,60.64.13,10.41,10.41,0,0,0,59,0a8.1,8.1,0,0,0-2.4.34,6.15,6.15,0,0,0-2,1A4.81,4.81,0,0,0,53.3,2.93a4.57,4.57,0,0,0-.49,2.15,4,4,0,0,0,.45,2,4.78,4.78,0,0,0,1.17,1.4,7,7,0,0,0,1.6,1c.59.27,1.16.52,1.72.73s.94.3,1.45.48a9.92,9.92,0,0,1,1.43.61,4.13,4.13,0,0,1,1.08.76,1.34,1.34,0,0,1,.44.95,1.65,1.65,0,0,1-.25.89,2.48,2.48,0,0,1-.68.69,3.72,3.72,0,0,1-1,.44,4.43,4.43,0,0,1-1.15.15,5.05,5.05,0,0,1-2.27-.5A26,26,0,0,1,54,12.26l-2.24,2.48s1.79,1.65,2,1.81a7.11,7.11,0,0,0,1.62,1,7.85,7.85,0,0,0,1.86.56,10.54,10.54,0,0,0,1.92.17,7.38,7.38,0,0,0,2.51-.41,6.3,6.3,0,0,0,2-1.13A5.17,5.17,0,0,0,65,15a4.65,4.65,0,0,0,.49-2.12A4.33,4.33,0,0,0,65,10.83,4.87,4.87,0,0,0,63.7,9.32Z"/><path d="M85.25,5.52a9.14,9.14,0,0,0-2-2.87A9.24,9.24,0,0,0,80.4.71a9.1,9.1,0,0,0-7.07,0,9.34,9.34,0,0,0-2.92,2,9.1,9.1,0,0,0-2,2.91,8.9,8.9,0,0,0-.72,3.57,8.8,8.8,0,0,0,.72,3.55,9.1,9.1,0,0,0,2,2.91,9.2,9.2,0,0,0,2.92,2,8.82,8.82,0,0,0,3.54.72A7.74,7.74,0,0,0,80,17.65,9.83,9.83,0,0,0,82.66,16l0,.34h0v1.79H86V16.44s0-.06,0-.08V9.05A8.76,8.76,0,0,0,85.25,5.52Zm-3,5.88A5.91,5.91,0,0,1,81,13.26a6.15,6.15,0,0,1-1.85,1.27,5.57,5.57,0,0,1-2.28.47,5.71,5.71,0,0,1-2.28-.47,6,6,0,0,1-1.86-1.27,6.14,6.14,0,0,1-1.25-1.86A5.73,5.73,0,0,1,71,9.15a5.8,5.8,0,0,1,.46-2.28A5.85,5.85,0,0,1,74.6,3.78a5.86,5.86,0,0,1,4.55,0,5.69,5.69,0,0,1,3.08,3.09,5.8,5.8,0,0,1,.45,2.28A5.72,5.72,0,0,1,82.23,11.4Z"/><circle class="cls-1" cx="9.23" cy="9.18" r="1.68"/><circle class="cls-1" cx="76.99" cy="9.33" r="1.68"/><path class="cls-1" d="M43.16,2V.2H39.89V2h0V16.27h0v1.79h3.27V2Z"/><path d="M49.19,3.54h0A5.75,5.75,0,0,0,46.85,4a6,6,0,0,0-1.92,1.3,6,6,0,0,0-1.31,1.93,5.91,5.91,0,0,0-.48,2.37v6.44a1.54,1.54,0,0,1-.45,1.14,1.47,1.47,0,0,1-1.1.46,1.65,1.65,0,0,1-1.18-.46,1.5,1.5,0,0,1-.48-1.14V9.62A9,9,0,0,1,40.66,6a9.45,9.45,0,0,1,2-2.95,9.28,9.28,0,0,1,3-2A8.71,8.71,0,0,1,49.18.32h.09a1.62,1.62,0,0,1,1.24.46A1.58,1.58,0,0,1,51,1.92a1.53,1.53,0,0,1-.49,1.16,1.64,1.64,0,0,1-1.19.46Z"/><path d="M43.16,10V9.14H39.89V10h0v7.13h0v.89h3.27V10Z"/></g></g></svg>